<svg width="16" height="12" viewBox="0 0 16 12" fill="none" xmlns="http://www.w3.org/2000/svg">
<path d="M16 1.30374C15.405 1.52484 14.771 1.6714 14.11 1.74256C14.79 1.39862 15.309 0.858149 15.553 0.206701C14.919 0.526918 14.219 0.753104 13.473 0.879327C12.871 0.336313 12.013 0 11.077 0C9.261 0 7.799 1.24868 7.799 2.77945C7.799 2.99971 7.821 3.21149 7.875 3.41311C5.148 3.30044 2.735 2.19323 1.114 0.506587C0.831 0.922531 0.665 1.39862 0.665 1.91114C0.665 2.87348 1.25 3.72655 2.122 4.22043C1.595 4.21196 1.078 4.08235 0.64 3.87819C0.64 3.88666 0.64 3.89767 0.64 3.90868C0.64 5.25902 1.777 6.38063 3.268 6.639C3.001 6.70084 2.71 6.73049 2.408 6.73049C2.198 6.73049 1.986 6.72033 1.787 6.68305C2.212 7.78348 3.418 8.5925 4.852 8.61876C3.736 9.35831 2.319 9.8039 0.785 9.8039C0.516 9.8039 0.258 9.79374 0 9.76578C1.453 10.5595 3.175 11.0128 5.032 11.0128C11.068 11.0128 14.368 6.77709 14.368 3.1056C14.368 2.98277 14.363 2.86417 14.356 2.74641C15.007 2.35504 15.554 1.86624 16 1.30374Z" fill="white"/>
</svg>
